<svg xmlns="http://www.w3.org/2000/svg" viewBox="0 0 64 64" role="img" aria-label="汤汤点餐">
  <defs>
    <linearGradient id="bg" x1="10" y1="8" x2="54" y2="58" gradientUnits="userSpaceOnUse">
      <stop offset="0" stop-color="#d98cff"/>
      <stop offset=".42" stop-color="#ac27ed"/>
      <stop offset="1" stop-color="#6d1b9a"/>
    </linearGradient>
    <radialGradient id="glow" cx="48" cy="12" r="28" gradientUnits="userSpaceOnUse">
      <stop offset="0" stop-color="#28d7ff" stop-opacity=".58"/>
      <stop offset=".52" stop-color="#28d7ff" stop-opacity=".16"/>
      <stop offset="1" stop-color="#28d7ff" stop-opacity="0"/>
    </radialGradient>
    <filter id="softShadow" x="-20%" y="-20%" width="140%" height="150%">
      <feDropShadow dx="0" dy="3" stdDeviation="2.2" flood-color="#3b0c58" flood-opacity=".24"/>
    </filter>
  </defs>
  <rect width="64" height="64" rx="17" fill="url(#bg)"/>
  <rect width="64" height="64" rx="17" fill="url(#glow)"/>
  <path d="M13 11.5C22 5 37 4.2 50 10" fill="none" stroke="#fff" stroke-opacity=".24" stroke-width="2"/>
  <g filter="url(#softShadow)">
    <path d="M18 35.5h28c-1.2 8.6-6.5 13-14 13s-12.8-4.4-14-13Z" fill="#fff" fill-opacity=".96"/>
    <path d="M16 34.5c0-3 7.2-5.5 16-5.5s16 2.5 16 5.5S40.8 40 32 40s-16-2.5-16-5.5Z" fill="#fff"/>
    <path d="M22 49.5h20" stroke="#fff" stroke-opacity=".9" stroke-width="3.5" stroke-linecap="round"/>
  </g>
  <path d="M25 26c-3.8-4.2 4.4-6.4 1.2-10.7" fill="none" stroke="#fff" stroke-opacity=".86" stroke-width="3" stroke-linecap="round"/>
  <path d="M33 26c-3.7-4.4 4.8-6.8 1-11.8" fill="none" stroke="#fff" stroke-opacity=".96" stroke-width="3" stroke-linecap="round"/>
  <path d="M41 26c-3.1-3.4 3.7-5.7 1.2-9.4" fill="none" stroke="#fff" stroke-opacity=".76" stroke-width="3" stroke-linecap="round"/>
  <circle cx="49.5" cy="15.5" r="3" fill="#fff" fill-opacity=".88"/>
  <rect x="1" y="1" width="62" height="62" rx="16" fill="none" stroke="#fff" stroke-opacity=".28" stroke-width="2"/>
</svg>
